<svg width="376" height="745" viewBox="0 0 376 745" fill="none" xmlns="http://www.w3.org/2000/svg">
<path d="M232.011 632.907L415.275 449.661C422.922 442.014 435.998 447.429 435.998 458.243V531.556C435.998 534.775 434.718 537.863 432.441 540.138L232.009 740.552C227.269 745.292 219.581 745.292 214.84 740.552L-56.4432 469.291C-58.7204 467.014 -60 463.927 -60 460.708V387.396C-60 376.581 -46.9243 371.164 -39.2766 378.814L214.843 632.909C219.583 637.649 227.271 637.649 232.011 632.909V632.907Z" fill="#2C3E50" fill-opacity="0.02"/>
<path d="M232.011 506.295L415.275 323.049C422.922 315.402 435.998 320.816 435.998 331.631V404.943C435.998 408.162 434.718 411.251 432.441 413.526L232.009 613.94C227.269 618.679 219.581 618.679 214.84 613.94L-56.4432 342.679C-58.7204 340.402 -60 337.315 -60 334.096V260.784C-60 249.969 -46.9243 244.552 -39.2766 252.201L214.843 506.297C219.583 511.037 227.271 511.037 232.011 506.297V506.295Z" fill="#2C3E50" fill-opacity="0.02"/>
<path d="M143.988 8.58355L-51.4157 203.969C-56.1567 208.71 -56.1567 216.396 -51.4157 221.136L214.844 487.371C219.585 492.112 227.271 492.112 232.012 487.371L427.416 291.986C432.157 287.245 432.157 279.559 427.416 274.819L161.156 8.58354C156.415 3.84298 148.729 3.84299 143.988 8.58355Z" fill="#2C3E50" fill-opacity="0.02"/>
</svg>
