<svg width="38" height="53" viewBox="0 0 38 53" fill="none" xmlns="http://www.w3.org/2000/svg">
<path d="M16.2481 0.684643L1.11337 15.7464C0.733422 16.1245 0.733422 16.7376 1.11337 17.1157L20.3758 36.2852C20.7558 36.6633 21.3718 36.6633 21.7518 36.2852L36.8865 21.2235C37.2665 20.8454 37.2665 20.2323 36.8865 19.8542L17.624 0.684644C17.2441 0.306531 16.6281 0.306531 16.2481 0.684643Z" fill="#2C3E50"/>
<path d="M37.5741 24.246V28.3528C37.5741 28.6095 37.4716 28.8558 37.2893 29.0373L21.7521 44.5001C21.3723 44.8781 20.7561 44.8781 20.3763 44.5001L0.710525 24.9304C0.528199 24.7489 0.425659 24.5026 0.425659 24.2457V20.1376C0.425659 19.2751 1.4735 18.843 2.08632 19.4529L20.376 37.6543C20.7558 38.0323 21.372 38.0323 21.7518 37.6543L35.9132 23.5612C36.526 22.9514 37.5738 23.3834 37.5738 24.246H37.5741Z" fill="#D3E0EA"/>
<path d="M37.5747 32.4609V36.5689C37.5747 36.8256 37.4722 37.0719 37.2899 37.2537L21.7521 52.7165C21.3723 53.0945 20.7561 53.0945 20.3763 52.7165L0.710525 33.1456C0.528199 32.9642 0.425659 32.7178 0.425659 32.4612V28.3531C0.425659 27.4906 1.4735 27.0585 2.08632 27.6684L20.376 45.8698C20.7558 46.2478 21.372 46.2478 21.7518 45.8698L35.9138 31.7762C36.5266 31.1663 37.5744 31.5983 37.5744 32.4609H37.5747Z" fill="#D3E0EA"/>
</svg>
